<svg width="14" height="14" viewBox="0 0 14 14" fill="none" xmlns="http://www.w3.org/2000/svg">
<path d="M11.9378 6.40178V2.87087C11.9378 2.03169 11.2506 1.33856 10.4113 1.33856H10.2212V1.0992C10.2212 0.500453 9.73581 0.0150576 9.13706 0.0150576C8.53831 0.0150576 8.05291 0.500453 8.05291 1.0992V1.33856H4.07772V1.0992C4.07772 0.492141 3.58558 0 2.97852 0C2.37146 0 1.87932 0.492141 1.87932 1.0992V1.33856H1.71504C0.875821 1.33856 0.192871 2.03169 0.192871 2.87087V10.9786C0.192871 11.8178 0.875821 12.5113 1.71504 12.5113H6.49111C7.27853 13.4531 8.44242 13.9982 9.6701 14C11.9498 14 13.8069 12.1426 13.8069 9.86282C13.8069 8.41786 13.052 7.14122 11.9378 6.40178ZM8.65522 1.0992C8.65058 0.836899 8.85943 0.620492 9.12173 0.615854C9.12595 0.615794 9.13016 0.615764 9.13438 0.615794C9.39915 0.612993 9.6161 0.825365 9.6189 1.09017C9.61893 1.09318 9.61893 1.09619 9.6189 1.0992V2.27212H8.65522V1.0992ZM2.48162 1.0992C2.48448 0.82934 2.70559 0.612903 2.97545 0.615764C2.97593 0.615764 2.97638 0.615764 2.97683 0.615794C3.24769 0.615794 3.47542 0.828376 3.47542 1.0992V2.27212H2.48162V1.0992ZM0.795173 2.87087C0.795173 2.36376 1.20793 1.94086 1.71504 1.94086H1.87932V2.5858C1.87932 2.7521 2.01821 2.87443 2.18453 2.87443H3.76919C3.93549 2.87443 4.07772 2.7521 4.07772 2.5858V1.94086H8.05291V2.5858C8.04846 2.74075 8.17045 2.86997 8.3254 2.87443C8.33094 2.87458 8.33648 2.87458 8.34202 2.87443H9.92668C10.084 2.87967 10.2158 2.75635 10.2211 2.59899C10.2212 2.5946 10.2213 2.5902 10.2212 2.5858V1.94086H10.4113C10.9219 1.94601 11.3335 2.36033 11.3355 2.87087V3.83811H0.795173V2.87087ZM1.71504 11.909C1.20793 11.909 0.795173 11.4857 0.795173 10.9786V4.44041H11.3355V6.07428C10.8112 5.84411 10.2449 5.72539 9.67238 5.7256C7.39267 5.7256 5.53677 7.58572 5.53677 9.8655C5.53562 10.5817 5.72074 11.2859 6.07399 11.909H1.71504ZM9.6701 13.3923C7.7193 13.3923 6.13786 11.8109 6.13786 9.86011C6.13786 7.90931 7.7193 6.32788 9.6701 6.32788C11.6209 6.32788 13.2023 7.90931 13.2023 9.86011V9.86014C13.2001 11.81 11.62 13.3901 9.6701 13.3923Z" fill="#777777"/>
<path d="M11.0891 9.86122H9.76978V8.0492C9.76978 7.88287 9.63496 7.74805 9.46863 7.74805C9.30231 7.74805 9.16748 7.88287 9.16748 8.0492V10.1621C9.17013 10.3295 9.30679 10.4638 9.47429 10.4635H11.0891C11.2555 10.4635 11.3903 10.3287 11.3903 10.1624C11.3903 9.99605 11.2555 9.86122 11.0891 9.86122Z" fill="#777777"/>
</svg>
