<svg width="16" height="16" viewBox="0 0 16 16" fill="none" xmlns="http://www.w3.org/2000/svg">
<path d="M15.8983 7.68879C15.7554 7.49326 12.3496 2.90109 7.99992 2.90109C3.65019 2.90109 0.244313 7.49326 0.101531 7.6886C-0.0338438 7.8741 -0.0338438 8.1257 0.101531 8.3112C0.244313 8.50673 3.65019 13.0989 7.99992 13.0989C12.3496 13.0989 15.7554 8.5067 15.8983 8.31135C16.0339 8.12588 16.0339 7.8741 15.8983 7.68879ZM7.99992 12.044C4.79588 12.044 2.02085 8.99604 1.19938 7.99963C2.01979 7.00235 4.78901 3.95603 7.99992 3.95603C11.2038 3.95603 13.9787 7.00341 14.8005 8.00035C13.9801 8.9976 11.2108 12.044 7.99992 12.044Z" fill="#777777"/>
<path d="M7.99981 4.83516C6.25474 4.83516 4.83496 6.25494 4.83496 8.00001C4.83496 9.74508 6.25474 11.1649 7.99981 11.1649C9.74487 11.1649 11.1647 9.74508 11.1647 8.00001C11.1647 6.25494 9.74487 4.83516 7.99981 4.83516ZM7.99981 10.1099C6.83637 10.1099 5.88993 9.16342 5.88993 8.00001C5.88993 6.8366 6.8364 5.89013 7.99981 5.89013C9.16322 5.89013 10.1097 6.8366 10.1097 8.00001C10.1097 9.16342 9.16325 10.1099 7.99981 10.1099Z" fill="#777777"/>
</svg>
