<svg width="54" height="54" viewBox="0 0 54 54" fill="none" xmlns="http://www.w3.org/2000/svg">
<g clip-path="url(#clip0)">
<path d="M53.0403 10.2124C52.3407 9.38534 51.3609 8.88015 50.2812 8.78997L12.2538 5.61474C11.1741 5.52457 10.1242 5.86027 9.29703 6.55985C8.47322 7.25667 7.96877 8.23152 7.87574 9.30592L7.11067 16.4837H4.05578C1.81943 16.4837 0 18.3031 0 20.5395V44.3439C0 46.5802 1.81943 48.3997 4.05578 48.3997H42.2156C44.4521 48.3997 46.2715 46.5802 46.2715 44.3439V40.4824L47.6256 40.5954C47.7398 40.6049 47.8534 40.6097 47.966 40.6097C50.0509 40.6097 51.8283 39.0056 52.0049 36.8912L53.9857 13.1693C54.0757 12.0897 53.74 11.0396 53.0403 10.2124ZM4.05578 18.593H42.2156C43.2888 18.593 44.1621 19.4662 44.1621 20.5395V22.7085H2.10937V20.5395C2.10937 19.4662 2.98254 18.593 4.05578 18.593ZM2.10937 24.8179H44.1621V29.1937H2.10937V24.8179ZM42.2156 46.2903H4.05578C2.98254 46.2903 2.10937 45.4171 2.10937 44.3439V31.303H44.1621V44.3439C44.1621 45.4171 43.2888 46.2903 42.2156 46.2903ZM51.8836 12.9937L49.9028 36.7156C49.8134 37.7851 48.8704 38.583 47.8011 38.4933L46.2715 38.3656V20.5395C46.2715 18.3031 44.4521 16.4837 42.2156 16.4837H9.23206L9.97446 9.51855C9.9753 9.51053 9.97604 9.50262 9.97667 9.4945C10.066 8.42495 11.0085 7.62719 12.0783 7.71683L50.1058 10.8921C50.624 10.9353 51.0942 11.1778 51.4299 11.5748C51.7657 11.9717 51.9268 12.4756 51.8836 12.9937Z" fill="url(#paint0_linear)"/>
<path d="M39.7482 34.4388H29.5977C29.0152 34.4388 28.543 34.911 28.543 35.4935V42.1158C28.543 42.6983 29.0152 43.1704 29.5977 43.1704H39.7482C40.3307 43.1704 40.8029 42.6983 40.8029 42.1158V35.4935C40.8029 34.911 40.3307 34.4388 39.7482 34.4388ZM38.6935 41.0611H30.6523V36.5482H38.6935V41.0611Z" fill="url(#paint1_linear)"/>
</g>
<defs>
<linearGradient id="paint0_linear" x1="27" y1="5.60035" x2="27" y2="48.3997" gradientUnits="userSpaceOnUse">
<stop stop-color="#FF5642"/>
<stop offset="1" stop-color="#FF7E3E"/>
</linearGradient>
<linearGradient id="paint1_linear" x1="34.6729" y1="34.4388" x2="34.6729" y2="43.1704" gradientUnits="userSpaceOnUse">
<stop stop-color="#FF5642"/>
<stop offset="1" stop-color="#FF7E3E"/>
</linearGradient>
<clipPath id="clip0">
<rect width="54" height="54" fill="white"/>
</clipPath>
</defs>
</svg>
