<svg width="14" height="14" viewBox="0 0 14 14" fill="none" xmlns="http://www.w3.org/2000/svg">
<g clip-path="url(#clip0)">
<path d="M6.99993 1.90846C6.29768 1.90846 5.72656 2.47958 5.72656 3.18183C5.72656 3.88407 6.29768 4.45516 6.99993 4.45516C7.70218 4.45516 8.27327 3.88404 8.27327 3.18183C8.27327 2.47961 7.70215 1.90846 6.99993 1.90846ZM6.99993 3.81881C6.6488 3.81881 6.36295 3.53295 6.36295 3.18183C6.36295 2.8307 6.6488 2.54485 6.99993 2.54485C7.35105 2.54485 7.63691 2.8307 7.63691 3.18183C7.63691 3.53295 7.35105 3.81881 6.99993 3.81881Z" fill="#777777"/>
<path d="M13.6818 5.72748C13.8577 5.72748 14 5.58603 14 5.41019V4.1376C14 4.02544 13.941 3.92136 13.8443 3.86418L7.6202 0.167879C7.6174 0.166 7.61459 0.164449 7.61182 0.162898C7.22496 -0.0514875 6.7887 -0.0579903 6.37947 0.167253L0.155681 3.86418C0.0590327 3.92133 0 4.02544 0 4.1376V5.41019C0 5.58603 0.142317 5.72748 0.318192 5.72748H1.27274V11.455C0.570789 11.455 0 12.0258 0 12.7276V13.6821C0 13.8579 0.142317 14.0002 0.318192 14.0002H13.6818C13.8577 14.0002 14 13.858 14 13.6821V12.7276C14 12.0258 13.4292 11.455 12.7273 11.455V5.72748H13.6818ZM13.3636 12.7275V13.3639H0.636354V12.7275C0.636354 12.3767 0.921913 12.0911 1.27271 12.0911H1.5909H12.4091H12.7273C13.0781 12.0911 13.3636 12.3767 13.3636 12.7275ZM1.90909 11.4548V5.72748H3.18183V11.4548H1.90909ZM3.81818 11.4548V5.72748H5.72728V11.4548H3.81818ZM6.36363 11.4548V5.72748H7.63637V11.4548H6.36363ZM8.27272 11.4548V5.72748H10.1818V11.4548H8.27272ZM10.8182 11.4548V5.72748H12.0909V11.4548H10.8182ZM0.636354 5.09113V4.31774L6.69519 0.718294C6.89343 0.609237 7.10409 0.609536 7.29986 0.716117L13.3636 4.31774V5.09113H0.636354Z" fill="#777777"/>
</g>
<defs>
<clipPath id="clip0">
<rect width="14" height="14" fill="white"/>
</clipPath>
</defs>
</svg>
