<svg width="163" height="21" viewBox="0 0 163 21" fill="none" xmlns="http://www.w3.org/2000/svg">
<path d="M5.4 4.04C4.76 4.04 4.12667 4.13333 3.5 4.32C2.87333 4.49333 2.26 4.70667 1.66 4.96L0.7 2.52C1.40667 2.21333 2.15333 1.97333 2.94 1.8C3.72667 1.61333 4.56667 1.52 5.46 1.52C7.56667 1.52 9.2 2.16667 10.36 3.46C11.52 4.74 12.1 6.54667 12.1 8.88C12.1 10.3467 11.8533 11.6333 11.36 12.74C10.8667 13.8333 10.1067 14.6867 9.08 15.3C8.06667 15.9 6.76667 16.2 5.18 16.2C4.36667 16.2 3.62667 16.14 2.96 16.02C2.30667 15.9 1.64 15.7133 0.96 15.46V12.92C1.72 13.16 2.42 13.3467 3.06 13.48C3.71333 13.6133 4.36 13.68 5 13.68C6.22667 13.68 7.17333 13.38 7.84 12.78C8.50667 12.1667 8.86667 11.2533 8.92 10.04H2.72V7.56H8.9C8.86 6.45333 8.52667 5.59333 7.9 4.98C7.27333 4.35333 6.44 4.04 5.4 4.04ZM21.9817 5.08H25.2617L20.9417 10.32L25.6417 16H22.2617L17.8017 10.46V16H14.8217V5.08H17.8017V10.38L21.9817 5.08ZM36.8845 7.94C36.8845 8.52667 36.6979 9.02667 36.3245 9.44C35.9645 9.85333 35.4245 10.12 34.7045 10.24V10.32C35.4645 10.4133 36.0712 10.6733 36.5245 11.1C36.9912 11.5267 37.2245 12.0733 37.2245 12.74C37.2245 13.3667 37.0579 13.9267 36.7245 14.42C36.4045 14.9133 35.8912 15.3 35.1845 15.58C34.4779 15.86 33.5512 16 32.4045 16H27.2045V5.08H32.4045C33.2579 5.08 34.0179 5.17333 34.6845 5.36C35.3645 5.53333 35.8979 5.82667 36.2845 6.24C36.6845 6.65333 36.8845 7.22 36.8845 7.94ZM33.8645 8.18C33.8645 7.51333 33.3379 7.18 32.2845 7.18H30.1845V9.34H31.9445C32.5712 9.34 33.0445 9.25333 33.3645 9.08C33.6979 8.89333 33.8645 8.59333 33.8645 8.18ZM34.1445 12.58C34.1445 12.1533 33.9779 11.8467 33.6445 11.66C33.3112 11.46 32.8112 11.36 32.1445 11.36H30.1845V13.94H32.2045C32.7645 13.94 33.2245 13.84 33.5845 13.64C33.9579 13.4267 34.1445 13.0733 34.1445 12.58ZM44.2627 4.86C45.7293 4.86 46.8493 5.18 47.6227 5.82C48.4093 6.44667 48.8027 7.41333 48.8027 8.72V16H46.7227L46.1427 14.52H46.0627C45.596 15.1067 45.1027 15.5333 44.5827 15.8C44.0627 16.0667 43.3493 16.2 42.4427 16.2C41.4693 16.2 40.6627 15.92 40.0227 15.36C39.3827 14.7867 39.0627 13.9133 39.0627 12.74C39.0627 11.58 39.4693 10.7267 40.2827 10.18C41.096 9.62 42.316 9.31333 43.9427 9.26L45.8427 9.2V8.72C45.8427 8.14667 45.6893 7.72667 45.3827 7.46C45.0893 7.19333 44.676 7.06 44.1427 7.06C43.6093 7.06 43.0893 7.14 42.5827 7.3C42.076 7.44667 41.5693 7.63333 41.0627 7.86L40.0827 5.84C40.6693 5.53333 41.316 5.29333 42.0227 5.12C42.7427 4.94667 43.4893 4.86 44.2627 4.86ZM44.6827 10.98C43.7227 11.0067 43.056 11.18 42.6827 11.5C42.3093 11.82 42.1227 12.24 42.1227 12.76C42.1227 13.2133 42.256 13.54 42.5227 13.74C42.7893 13.9267 43.136 14.02 43.5627 14.02C44.2027 14.02 44.7427 13.8333 45.1827 13.46C45.6227 13.0733 45.8427 12.5333 45.8427 11.84V10.94L44.6827 10.98ZM62.313 0.38C62.2463 1.07333 62.053 1.68667 61.733 2.22C61.413 2.74 60.913 3.14667 60.233 3.44C59.553 3.73333 58.6396 3.88 57.493 3.88C56.3196 3.88 55.3996 3.74 54.733 3.46C54.0796 3.16667 53.613 2.76 53.333 2.24C53.053 1.72 52.8863 1.1 52.833 0.38H55.493C55.5596 1.11333 55.7463 1.6 56.053 1.84C56.3596 2.08 56.8596 2.2 57.553 2.2C58.1263 2.2 58.593 2.07333 58.953 1.82C59.3263 1.55333 59.5463 1.07333 59.613 0.38H62.313ZM54.733 9.4C54.733 9.62667 54.7196 9.90667 54.693 10.24C54.6796 10.5733 54.6596 10.9133 54.633 11.26C54.6196 11.6067 54.5996 11.9133 54.573 12.18C54.5463 12.4467 54.5263 12.6333 54.513 12.74L59.553 5.08H63.133V16H60.253V11.64C60.253 11.28 60.2663 10.8867 60.293 10.46C60.3196 10.02 60.3463 9.61333 60.373 9.24C60.413 8.85333 60.4396 8.56 60.453 8.36L55.433 16H51.853V5.08H54.733V9.4ZM72.3275 4.88C73.5542 4.88 74.5475 5.36 75.3075 6.32C76.0675 7.26667 76.4475 8.66667 76.4475 10.52C76.4475 12.3733 76.0542 13.7867 75.2675 14.76C74.4808 15.72 73.4742 16.2 72.2475 16.2C71.4608 16.2 70.8342 16.06 70.3675 15.78C69.9008 15.4867 69.5208 15.16 69.2275 14.8H69.0675C69.1742 15.36 69.2275 15.8933 69.2275 16.4V20.8H66.2475V5.08H68.6675L69.0875 6.5H69.2275C69.5208 6.06 69.9142 5.68 70.4075 5.36C70.9008 5.04 71.5408 4.88 72.3275 4.88ZM71.3675 7.26C70.5942 7.26 70.0475 7.5 69.7275 7.98C69.4208 8.46 69.2542 9.19333 69.2275 10.18V10.5C69.2275 11.5533 69.3808 12.3667 69.6875 12.94C70.0075 13.5 70.5808 13.78 71.4075 13.78C72.0875 13.78 72.5875 13.5 72.9075 12.94C73.2408 12.3667 73.4075 11.5467 73.4075 10.48C73.4075 8.33333 72.7275 7.26 71.3675 7.26ZM81.7838 9.4C81.7838 9.62667 81.7704 9.90667 81.7438 10.24C81.7304 10.5733 81.7104 10.9133 81.6838 11.26C81.6704 11.6067 81.6504 11.9133 81.6238 12.18C81.5971 12.4467 81.5771 12.6333 81.5638 12.74L86.6038 5.08H90.1838V16H87.3038V11.64C87.3038 11.28 87.3171 10.8867 87.3438 10.46C87.3704 10.02 87.3971 9.61333 87.4238 9.24C87.4638 8.85333 87.4904 8.56 87.5038 8.36L82.4837 16H78.9038V5.08H81.7838V9.4ZM96.2783 5.08V9.28H100.438V5.08H103.418V16H100.438V11.5H96.2783V16H93.2983V5.08H96.2783ZM114.08 5.08V7.32H109.52V16H106.54V5.08H114.08ZM118.971 9.4C118.971 9.62667 118.958 9.90667 118.931 10.24C118.918 10.5733 118.898 10.9133 118.871 11.26C118.858 11.6067 118.838 11.9133 118.811 12.18C118.785 12.4467 118.765 12.6333 118.751 12.74L123.791 5.08H127.371V16H124.491V11.64C124.491 11.28 124.505 10.8867 124.531 10.46C124.558 10.02 124.585 9.61333 124.611 9.24C124.651 8.85333 124.678 8.56 124.691 8.36L119.671 16H116.091V5.08H118.971V9.4ZM130.066 14.6C130.066 13.9867 130.232 13.56 130.566 13.32C130.899 13.0667 131.306 12.94 131.786 12.94C132.252 12.94 132.652 13.0667 132.986 13.32C133.319 13.56 133.486 13.9867 133.486 14.6C133.486 15.1867 133.319 15.6133 132.986 15.88C132.652 16.1333 132.252 16.26 131.786 16.26C131.306 16.26 130.899 16.1333 130.566 15.88C130.232 15.6133 130.066 15.1867 130.066 14.6ZM142.269 4.88C143.496 4.88 144.489 5.36 145.249 6.32C146.009 7.26667 146.389 8.66667 146.389 10.52C146.389 12.3733 145.996 13.7867 145.209 14.76C144.422 15.72 143.416 16.2 142.189 16.2C141.402 16.2 140.776 16.06 140.309 15.78C139.842 15.4867 139.462 15.16 139.169 14.8H139.009C139.116 15.36 139.169 15.8933 139.169 16.4V20.8H136.189V5.08H138.609L139.029 6.5H139.169C139.462 6.06 139.856 5.68 140.349 5.36C140.842 5.04 141.482 4.88 142.269 4.88ZM141.309 7.26C140.536 7.26 139.989 7.5 139.669 7.98C139.362 8.46 139.196 9.19333 139.169 10.18V10.5C139.169 11.5533 139.322 12.3667 139.629 12.94C139.949 13.5 140.522 13.78 141.349 13.78C142.029 13.78 142.529 13.5 142.849 12.94C143.182 12.3667 143.349 11.5467 143.349 10.48C143.349 8.33333 142.669 7.26 141.309 7.26ZM156.825 5.02C158.718 5.18 160.165 5.76 161.165 6.76C162.165 7.74667 162.665 9.00667 162.665 10.54C162.665 12.0733 162.178 13.34 161.205 14.34C160.232 15.34 158.772 15.92 156.825 16.08V20.8H154.065V16.08C152.185 15.9067 150.732 15.32 149.705 14.32C148.692 13.32 148.185 12.06 148.185 10.54C148.185 8.98 148.658 7.70667 149.605 6.72C150.565 5.72 152.052 5.15333 154.065 5.02V0.799999H156.825V5.02ZM154.065 7.26C153.198 7.38 152.512 7.74 152.005 8.34C151.498 8.94 151.245 9.67333 151.245 10.54C151.245 11.4333 151.492 12.18 151.985 12.78C152.478 13.3667 153.172 13.7133 154.065 13.82V7.26ZM156.825 13.82C157.718 13.7133 158.405 13.3667 158.885 12.78C159.365 12.18 159.605 11.4333 159.605 10.54C159.605 9.67333 159.358 8.94667 158.865 8.36C158.372 7.76 157.692 7.40667 156.825 7.3V13.82Z" fill="#232323"/>
</svg>
