<svg width="22" height="14" viewBox="0 0 22 14" fill="none" xmlns="http://www.w3.org/2000/svg">
<path d="M20.6632 1.76699C20.5868 2.1498 20.2805 2.77506 19.7445 3.64278C19.2341 4.51048 18.762 5.2761 18.3282 5.93965C17.8943 6.57767 17.6646 6.90944 17.6391 6.93496C17.4859 7.16465 17.4093 7.33053 17.4093 7.43262C17.4093 7.5347 17.4859 7.71335 17.6391 7.96855C17.6391 7.96855 17.7157 8.05788 17.8687 8.23653C18.0475 8.41517 18.2516 8.61933 18.4813 8.84903C18.7109 9.07871 18.9661 9.34667 19.2468 9.65294C19.5275 9.95917 19.7828 10.2654 20.0125 10.5717C20.2677 10.8524 20.4846 11.1459 20.6632 11.4521C20.8675 11.7584 21.0078 12.0136 21.0843 12.2178C21.263 12.8558 21.0078 13.1748 20.3187 13.1748H18.0602C17.8816 13.1748 17.7284 13.1493 17.6007 13.0982C17.4732 13.0472 17.3328 12.9579 17.1797 12.8303C17.0266 12.7027 16.8862 12.5623 16.7586 12.4092C16.6309 12.2561 16.4396 12.0391 16.1843 11.7584C15.9291 11.4777 15.6739 11.2097 15.4187 10.9545C14.3979 9.9847 13.645 9.49981 13.1602 9.49981C12.8539 9.49981 12.6753 9.58913 12.6242 9.76778C12.5732 9.94642 12.5477 10.4568 12.5477 11.299C12.5732 11.7074 12.5859 12.0391 12.5859 12.2943C12.5859 12.6006 12.4839 12.8303 12.2797 12.9834C12.0755 13.111 11.6289 13.1748 10.9398 13.1748C9.74036 13.1748 8.52813 12.8175 7.30313 12.1029C6.07813 11.3883 5.00625 10.3675 4.0875 9.04044C3.21979 7.86647 2.49245 6.70528 1.90547 5.55683C1.344 4.38287 0.973959 3.48965 0.795314 2.87715C0.616666 2.26465 0.527344 1.8308 0.527344 1.57559C0.527344 1.14173 0.782552 0.924805 1.29297 0.924805H3.55157C3.83229 0.924805 4.03646 0.988607 4.16407 1.11621C4.31718 1.24382 4.44479 1.4735 4.54687 1.80528C5.08282 3.36205 5.73359 4.75294 6.49922 5.97794C7.29036 7.20294 7.89011 7.81544 8.29843 7.81544C8.45157 7.81544 8.55364 7.76439 8.60468 7.66231C8.68125 7.5347 8.71953 7.30501 8.71953 6.97324V3.64278C8.694 3.28549 8.63021 2.97923 8.52813 2.72403C8.42604 2.46881 8.32396 2.29017 8.22187 2.18808C8.11979 2.06048 8.01771 1.93287 7.91563 1.80528C7.83907 1.67767 7.80078 1.56283 7.80078 1.46074C7.80078 1.35866 7.8263 1.26934 7.87734 1.19277C7.92839 1.11621 7.99218 1.05241 8.06875 1.00137C8.17084 0.950325 8.27291 0.924805 8.375 0.924805H11.9352C12.3435 0.924805 12.5477 1.20553 12.5477 1.76699V6.20762C12.5477 6.64147 12.6625 6.8584 12.8922 6.8584C13.1474 6.8584 13.5047 6.62871 13.9641 6.16933C14.4489 5.6334 14.9211 4.98262 15.3805 4.21699C15.8398 3.45137 16.1843 2.81335 16.4141 2.30294L16.7586 1.57559C16.9373 1.14173 17.2563 0.924805 17.7157 0.924805H19.9743C20.5868 0.924805 20.8164 1.20553 20.6632 1.76699Z" fill="white"/>
</svg>
