<svg width="12" height="24" viewBox="0 0 12 24" fill="none" xmlns="http://www.w3.org/2000/svg">
<path d="M11.2063 13.3998H7.9251V23.1998H3.5501V13.3998H0.00634766V9.33106H3.5501V6.26856C3.5501 5.10189 3.76885 4.11022 4.20635 3.29355C4.64385 2.47689 5.25635 1.86439 6.04385 1.45605C6.86051 1.01855 7.79385 0.799805 8.84385 0.799805C9.31051 0.799805 9.80635 0.828971 10.3313 0.887305C10.8563 0.916471 11.2647 0.960221 11.5563 1.01855L11.9938 1.0623V4.51855H10.2438C9.42719 4.51855 8.82926 4.7373 8.4501 5.17481C8.1001 5.58314 7.9251 6.09355 7.9251 6.70606V9.33106H11.8188L11.2063 13.3998Z" fill="white"/>
</svg>
