<svg width="23" height="20" viewBox="0 0 23 20" fill="none" xmlns="http://www.w3.org/2000/svg">
<path d="M22.8878 2.02204L19.5032 18.6767C19.2377 19.8639 18.6238 20.1782 17.6617 19.6196L12.535 15.6391L10.0463 18.1531C9.71451 18.5022 9.3661 18.6767 9.0011 18.6767L9.39928 13.1776L18.9059 4.16935C19.1381 3.92495 19.1381 3.78527 18.9059 3.75036C18.7068 3.68053 18.4912 3.7329 18.2589 3.90748L6.51245 11.7111L1.43561 10.0352C0.871513 9.86059 0.606058 9.59872 0.63924 9.24957C0.672422 8.90042 1.02083 8.60363 1.68447 8.35922L21.4444 0.293719C21.942 0.119141 22.3402 0.188972 22.639 0.503213C22.9374 0.782538 23.0204 1.28881 22.8878 2.02204Z" fill="white"/>
</svg>
